<svg width="1em" height="1em" viewBox="0 0 24 24" fill="#ffffff" xmlns="http://www.w3.org/2000/svg" style="user-select: none;"><path d="M1.09961 4.28728C1.09961 2.89766 2.3684 2.10156 3.57856 2.10156H20.4207C21.6308 2.10156 22.8996 2.89766 22.8996 4.28728V19.7158C22.8996 21.1055 21.6308 21.9016 20.4207 21.9016H3.57856C2.3684 21.9016 1.09961 21.1055 1.09961 19.7158V4.28728ZM3.02184 4.0691C2.92351 4.14916 2.89961 4.22472 2.89961 4.28728V19.7158C2.89961 19.7784 2.92351 19.854 3.02184 19.934C3.12635 20.0191 3.31398 20.1016 3.57856 20.1016H20.4207C20.6852 20.1016 20.8729 20.0191 20.9774 19.934C21.0757 19.854 21.0996 19.7784 21.0996 19.7158V4.28728C21.0996 4.22472 21.0757 4.14916 20.9774 4.0691C20.8729 3.984 20.6852 3.90156 20.4207 3.90156H3.57856C3.31398 3.90156 3.12635 3.984 3.02184 4.0691ZM11.0996 21L11.0996 3L12.8996 3L12.8996 21L11.0996 21Z" fill="#ffffff" style="user-select: none;"></path><path d="M6.65234 14.5039V10.2852H6.62109L5.23828 11.1992V9.8125L6.65234 8.86719H8.30859V14.5039H6.65234ZM14.7773 14.5039V13.375L16.7773 11.7188C17.4688 11.1484 17.5938 10.9023 17.5938 10.5898V10.582C17.5938 10.2344 17.3242 9.98828 16.9336 9.98828C16.4844 9.98828 16.2227 10.2656 16.1914 10.6719L16.1875 10.7227H14.6797V10.6836C14.6797 9.53906 15.5977 8.76562 16.9336 8.76562C18.2969 8.76562 19.1875 9.44531 19.1875 10.4805V10.4883C19.1875 11.2422 18.8242 11.6641 17.918 12.3945L16.8945 13.2227V13.2539H19.2539V14.5039H14.7773Z" fill="#ffffff" style="user-select: none;"></path></svg>