<svg width="1em" height="1em" viewBox="0 0 24 24" fill="#ffffff" xmlns="http://www.w3.org/2000/svg" style="user-select: none;"><path d="M1.09961 4.28728C1.09961 2.89766 2.3684 2.10156 3.57856 2.10156H20.4207C21.6308 2.10156 22.8996 2.89766 22.8996 4.28728V19.7158C22.8996 21.1055 21.6308 21.9016 20.4207 21.9016H3.57856C2.3684 21.9016 1.09961 21.1055 1.09961 19.7158V4.28728ZM3.02184 4.0691C2.92351 4.14916 2.89961 4.22472 2.89961 4.28728V19.7158C2.89961 19.7784 2.92351 19.854 3.02184 19.934C3.12635 20.0191 3.31398 20.1016 3.57856 20.1016H20.4207C20.6852 20.1016 20.8729 20.0191 20.9774 19.934C21.0757 19.854 21.0996 19.7784 21.0996 19.7158V4.28728C21.0996 4.22472 21.0757 4.14916 20.9774 4.0691C20.8729 3.984 20.6852 3.90156 20.4207 3.90156H3.57856C3.31398 3.90156 3.12635 3.984 3.02184 4.0691ZM11.0996 21L11.0996 3L12.8996 3L12.8996 21L11.0996 21Z" fill="#ffffff" style="user-select: none;"></path><path d="M4.77734 14.5039V13.375L6.77734 11.7188C7.46875 11.1484 7.59375 10.9023 7.59375 10.5898V10.582C7.59375 10.2344 7.32422 9.98828 6.93359 9.98828C6.48438 9.98828 6.22266 10.2656 6.19141 10.6719L6.1875 10.7227H4.67969V10.6836C4.67969 9.53906 5.59766 8.76562 6.93359 8.76562C8.29688 8.76562 9.1875 9.44531 9.1875 10.4805V10.4883C9.1875 11.2422 8.82422 11.6641 7.91797 12.3945L6.89453 13.2227V13.2539H9.25391V14.5039H4.77734ZM16.9609 14.6055C15.5742 14.6055 14.6523 13.9102 14.5703 12.8555L14.5664 12.8047H16.1445L16.1523 12.8516C16.1953 13.1016 16.4883 13.3203 16.957 13.3203C17.4258 13.3203 17.707 13.0859 17.707 12.7578V12.75C17.707 12.3672 17.3984 12.1602 16.8242 12.1602H16.2422V11.0703H16.8242C17.3359 11.0703 17.6328 10.8594 17.6328 10.5117V10.5039C17.6328 10.1758 17.3711 9.97266 16.9492 9.97266C16.5078 9.97266 16.2344 10.1875 16.1992 10.4922L16.1953 10.5273H14.7031L14.707 10.4688C14.7773 9.43359 15.6367 8.76562 16.9492 8.76562C18.3008 8.76562 19.1562 9.35547 19.1562 10.2734V10.2812C19.1562 10.9922 18.6172 11.4336 18 11.5547V11.5859C18.8555 11.6758 19.3906 12.1328 19.3906 12.8633V12.8711C19.3906 13.9414 18.4648 14.6055 16.9609 14.6055Z" fill="#ffffff" style="user-select: none;"></path></svg>